<svg width="139" height="42" viewBox="0 0 139 42" fill="none" xmlns="http://www.w3.org/2000/svg">
<path d="M71.7683 11.0397L69.5391 13.2819C68.6331 12.3771 67.8119 11.9313 67.0753 11.9313C66.6712 11.9313 66.3518 12.0166 66.1237 12.187C65.8956 12.3575 65.7783 12.5738 65.7783 12.8295C65.7783 13.0262 65.85 13.2032 65.9933 13.3671C66.1367 13.531 66.4952 13.7539 67.0688 14.0358L68.3855 14.698C69.7738 15.3864 70.7254 16.0879 71.2469 16.809C71.7683 17.5236 72.0225 18.3628 72.0225 19.3265C72.0225 20.605 71.5532 21.6802 70.6211 22.5324C69.6825 23.3913 68.4311 23.8174 66.8602 23.8174C64.768 23.8174 63.0994 22.9979 61.8479 21.3524L64.064 18.9266C64.4877 19.4249 64.9831 19.8248 65.5501 20.1264C66.1172 20.4345 66.6191 20.5853 67.0623 20.5853C67.5381 20.5853 67.9162 20.4738 68.2095 20.2378C68.5028 20.0084 68.6462 19.7461 68.6462 19.4445C68.6462 18.8873 68.1247 18.3431 67.0753 17.8121L65.863 17.2024C63.5426 16.0289 62.3824 14.5537 62.3824 12.7902C62.3824 11.6494 62.8191 10.6726 63.6925 9.86619C64.5659 9.05979 65.687 8.65332 67.0493 8.65332C67.9813 8.65332 68.8548 8.85656 69.676 9.26959C70.5038 9.68262 71.2012 10.2727 71.7683 11.0397Z" fill="#333333"/>
<path d="M85.4496 9.02771H89.0475V23.451H85.4496V21.9234C84.7457 22.5987 84.0417 23.0773 83.3378 23.3723C82.6338 23.6673 81.8647 23.8181 81.0434 23.8181C79.1923 23.8181 77.5889 23.097 76.2397 21.6481C74.8905 20.2057 74.2126 18.4094 74.2126 16.259C74.2126 14.03 74.8644 12.2074 76.1745 10.7847C77.4846 9.36207 79.0685 8.64746 80.9391 8.64746C81.7995 8.64746 82.6078 8.81136 83.3638 9.13916C84.1199 9.46696 84.8173 9.95867 85.4561 10.6143V9.02771H85.4496ZM81.6692 11.9976C80.5546 11.9976 79.6356 12.391 78.899 13.1842C78.1625 13.9775 77.7975 14.9871 77.7975 16.2262C77.7975 17.4719 78.169 18.4946 78.9186 19.301C79.6681 20.1074 80.5872 20.5073 81.6822 20.5073C82.8098 20.5073 83.7484 20.114 84.4915 19.3207C85.2345 18.5274 85.606 17.4915 85.606 16.2131C85.606 14.9609 85.2345 13.9447 84.4915 13.1646C83.7484 12.3844 82.8098 11.9976 81.6692 11.9976Z" fill="#333333"/>
<path d="M92.2934 3.45508H95.8913V23.451H92.2934V3.45508Z" fill="#333333"/>
<path d="M109.749 9.02771H113.347V23.451H109.749V21.9234C109.045 22.5987 108.341 23.0773 107.637 23.3723C106.933 23.6673 106.164 23.8181 105.342 23.8181C103.491 23.8181 101.888 23.097 100.539 21.6481C99.1895 20.2057 98.5116 18.4094 98.5116 16.259C98.5116 14.03 99.1634 12.2074 100.474 10.7847C101.784 9.36207 103.367 8.64746 105.238 8.64746C106.099 8.64746 106.907 8.81136 107.663 9.13916C108.419 9.46696 109.116 9.95867 109.755 10.6143V9.02771H109.749ZM105.962 11.9976C104.847 11.9976 103.928 12.391 103.192 13.1842C102.455 13.9775 102.09 14.9871 102.09 16.2262C102.09 17.4719 102.461 18.4946 103.211 19.301C103.961 20.1074 104.88 20.5073 105.975 20.5073C107.102 20.5073 108.041 20.114 108.784 19.3207C109.527 18.5274 109.899 17.4915 109.899 16.2131C109.899 14.9609 109.527 13.9447 108.784 13.1646C108.041 12.3844 107.102 11.9976 105.962 11.9976Z" fill="#333333"/>
<path d="M116.958 9.02701H120.555V10.6857C121.168 10.0039 121.853 9.49905 122.609 9.15813C123.358 8.82378 124.179 8.65332 125.066 8.65332C125.965 8.65332 126.774 8.87623 127.491 9.31548C128.214 9.75473 128.794 10.4038 129.231 11.2495C129.804 10.4038 130.502 9.75473 131.336 9.31548C132.17 8.87623 133.076 8.65332 134.061 8.65332C135.078 8.65332 135.977 8.88934 136.753 9.36793C137.528 9.84652 138.082 10.4693 138.421 11.2364C138.76 12.0035 138.93 13.2557 138.93 14.9864V23.4437H135.306V16.1338C135.306 14.5013 135.104 13.3933 134.699 12.8098C134.295 12.2329 133.689 11.9444 132.881 11.9444C132.268 11.9444 131.714 12.1215 131.225 12.4755C130.737 12.8295 130.378 13.3147 130.137 13.9375C129.902 14.5603 129.778 15.5634 129.778 16.9401V23.4503H126.154V16.4616C126.154 15.17 126.057 14.2391 125.868 13.6556C125.679 13.0786 125.392 12.6459 125.014 12.364C124.636 12.0821 124.179 11.9379 123.638 11.9379C123.039 11.9379 122.498 12.1149 122.009 12.4755C121.52 12.8361 121.155 13.3343 120.914 13.9834C120.673 14.6324 120.549 15.6486 120.549 17.0319V23.4503H116.951V9.02701H116.958Z" fill="#333333"/>
<path d="M30.7902 16.3675C30.7902 24.9001 23.9133 31.8171 15.4303 31.8171C6.94724 31.8171 0.0703735 24.9001 0.0703735 16.3675C0.0703735 7.83497 6.94724 0.917969 15.4303 0.917969C23.9133 0.917969 30.7902 7.83497 30.7902 16.3675ZM6.67513 16.3675C6.67513 21.2311 10.5949 25.1738 15.4303 25.1738C20.2656 25.1738 24.1854 21.2311 24.1854 16.3675C24.1854 11.504 20.2656 7.56128 15.4303 7.56128C10.5949 7.56128 6.67513 11.504 6.67513 16.3675Z" fill="#DF2F2F"/>
<path d="M55.0407 16.4492C55.0407 25.0269 48.1275 31.9804 39.5996 31.9804C31.0717 31.9804 24.1585 25.0269 24.1585 16.4492C24.1585 7.87154 31.0717 0.917969 39.5996 0.917969C48.1275 0.917969 55.0407 7.87154 55.0407 16.4492ZM30.7982 16.4492C30.7982 21.3385 34.7387 25.302 39.5996 25.302C44.4605 25.302 48.4011 21.3385 48.4011 16.4492C48.4011 11.5599 44.4605 7.5964 39.5996 7.5964C34.7387 7.5964 30.7982 11.5599 30.7982 16.4492Z" fill="#333333"/>
<path d="M105.069 33.4465H106.932V34.206C107.357 33.8502 107.74 33.6038 108.083 33.467C108.43 33.3256 108.784 33.2549 109.144 33.2549C109.884 33.2549 110.512 33.5126 111.028 34.0281C111.462 34.466 111.678 35.1137 111.678 35.9713V40.891H109.829V37.6271C109.829 36.7376 109.788 36.1469 109.706 35.855C109.628 35.563 109.489 35.3418 109.288 35.1913C109.092 35.0362 108.848 34.9586 108.555 34.9586C108.176 34.9586 107.85 35.0864 107.576 35.3418C107.307 35.5927 107.12 35.9416 107.014 36.3887C106.96 36.6213 106.932 37.1254 106.932 37.9008V40.891H105.069V33.4465Z" fill="#DF2F2F"/>
<path d="M120.958 37.7093H114.952C115.039 38.2384 115.269 38.6603 115.644 38.9751C116.023 39.2853 116.505 39.4404 117.089 39.4404C117.788 39.4404 118.388 39.1963 118.89 38.7082L120.465 39.4472C120.073 40.0037 119.602 40.4165 119.055 40.6857C118.507 40.9503 117.856 41.0825 117.103 41.0825C115.934 41.0825 114.982 40.7153 114.247 39.9809C113.512 39.2419 113.144 38.3182 113.144 37.2098C113.144 36.0739 113.509 35.132 114.24 34.3839C114.975 33.6312 115.895 33.2549 117 33.2549C118.173 33.2549 119.128 33.6312 119.863 34.3839C120.598 35.132 120.965 36.1218 120.965 37.3535L120.958 37.7093ZM119.082 36.2381C118.959 35.823 118.714 35.4855 118.349 35.2255C117.988 34.9655 117.568 34.8355 117.089 34.8355C116.568 34.8355 116.112 34.9814 115.719 35.2734C115.473 35.4558 115.244 35.7774 115.034 36.2381H119.082Z" fill="#DF2F2F"/>
<path d="M121.65 33.4465H123.479L124.979 37.6819L126.595 33.4465H127.711L129.293 37.634L130.793 33.4465H132.636L129.917 40.891H128.732L127.143 36.6487L125.506 40.891H124.335L121.65 33.4465Z" fill="#DF2F2F"/>
<path d="M138.258 34.4865L137.101 35.6429C136.631 35.1776 136.204 34.9449 135.82 34.9449C135.61 34.9449 135.446 34.9906 135.327 35.0818C135.208 35.1685 135.149 35.2779 135.149 35.4102C135.149 35.5106 135.186 35.6041 135.259 35.6908C135.336 35.7729 135.523 35.8869 135.82 36.0329L136.505 36.375C137.226 36.7308 137.722 37.0934 137.991 37.4629C138.261 37.8324 138.395 38.2658 138.395 38.763C138.395 39.4244 138.151 39.9764 137.663 40.4188C137.179 40.8613 136.528 41.0825 135.711 41.0825C134.624 41.0825 133.756 40.6583 133.108 39.8099L134.259 38.5577C134.478 38.8132 134.734 39.0207 135.026 39.1804C135.323 39.3355 135.585 39.413 135.813 39.413C136.06 39.413 136.259 39.3537 136.409 39.2351C136.56 39.1165 136.635 38.9797 136.635 38.8246C136.635 38.5372 136.364 38.2566 135.82 37.983L135.19 37.6682C133.985 37.0615 133.382 36.302 133.382 35.3897C133.382 34.8013 133.608 34.2995 134.06 33.8844C134.517 33.4647 135.099 33.2549 135.807 33.2549C136.291 33.2549 136.745 33.3621 137.169 33.5765C137.599 33.7863 137.962 34.0897 138.258 34.4865Z" fill="#DF2F2F"/>
</svg>
